<svg width="767" height="155" viewBox="0 0 767 155" fill="none" xmlns="http://www.w3.org/2000/svg">
<path d="M240.459 84.1374C235.37 102.52 232.426 120.245 228.795 138.171C226.822 147.748 218.56 148.234 211.355 151.522C210.441 151.941 209.497 152.046 208.525 151.836C200.711 150.121 197.556 145.051 199.062 136.627C208.058 86.1577 214.748 47.4194 219.132 20.4122C220.676 11.0064 229.967 4.57382 239.573 6.03187C243.899 6.69895 248.283 6.82283 252.724 6.40353C253.17 6.36243 253.62 6.41714 254.043 6.564C254.467 6.71087 254.854 6.94649 255.178 7.25509C255.503 7.56369 255.758 7.93815 255.927 8.35337C256.095 8.76859 256.173 9.215 256.155 9.66269C255.869 17.5247 260.986 23.4712 262.759 31.076C266.304 46.171 271.65 62.3715 278.797 79.6775C280.284 83.2797 281.418 83.1654 282.199 79.3344C286.183 59.7985 289.509 41.1107 292.177 23.2711C292.72 19.8118 294.921 13.8367 298.524 12.1785C302.317 10.4251 304.604 6.68942 305.385 0.971593C305.519 0.0758 306.005 -0.200564 306.843 0.142505L314.934 3.48743C315.849 3.86862 316.316 4.55477 316.335 5.54586L316.363 11.4066C316.363 12.5121 316.907 13.1029 317.993 13.1792L319.251 13.2649C319.746 13.303 320.023 13.0839 320.08 12.6074L320.966 6.4893C321.1 5.65068 321.567 5.13607 322.367 4.94548C322.691 4.86924 322.996 4.92643 323.282 5.11702C323.835 5.47915 324.101 5.99375 324.082 6.66083C323.682 21.6415 319.565 35.9361 317.307 50.7167C316.297 57.3684 315.172 63.8677 313.933 70.2145C311.274 83.9658 310.817 98.0889 307.586 111.183C305.928 117.93 304.337 124.629 302.812 131.281C301.897 135.14 298.867 139.772 294.893 141.23C288.232 143.66 277.425 146.948 271.135 142.173C267.686 139.543 264.579 136.589 261.815 133.311C261.541 132.987 261.364 132.593 261.303 132.174C261.242 131.754 261.301 131.326 261.472 130.938C265.303 122.447 250.094 93.2573 245.119 83.6514C243.156 79.8204 241.603 79.9824 240.459 84.1374Z" fill="white"/>
<path d="M5.34389 144.317C4.37186 145.804 3.19971 147.014 1.82743 147.948C0.397971 148.958 -0.192868 148.596 0.0549043 146.861C0.998346 140 1.28423 132.996 2.74228 126.106C8.70788 98.1456 11.8908 69.8424 12.2911 41.1961C12.3101 39.252 11.3857 37.7177 9.5179 36.5932C8.7647 36.1422 8.14685 35.4979 7.7293 34.7282C7.31175 33.9585 7.10992 33.0918 7.14501 32.2191L7.80256 15.7803C7.84068 14.4652 8.51728 13.7124 9.83238 13.5218C15.493 12.7213 28.9299 12.9786 27.5005 3.54415C27.3099 2.28623 27.8435 1.78116 29.1015 2.02893C45.7975 5.17374 64.5806 2.45777 81.9056 2.45777C90.6253 2.42918 98.8589 5.37386 107.579 6.40307C108.665 6.53648 109.523 7.07968 110.152 8.03265C110.704 8.90938 110.466 9.44305 109.437 9.63364C107.683 9.95765 106.111 10.6914 104.72 11.835C104.415 12.0921 104.184 12.4253 104.049 12.8007C103.915 13.1762 103.883 13.5805 103.955 13.9725C104.028 14.3646 104.203 14.7304 104.463 15.0328C104.723 15.3353 105.058 15.5636 105.434 15.6945C108.77 16.8572 112.315 17.2098 116.07 16.7523C121.33 16.0853 121.673 17.0859 117.099 19.7542C113.344 21.946 109.17 23.6804 104.577 24.9574C102.537 25.5292 101.851 26.8062 102.518 28.7884C102.628 29.1146 102.662 29.4617 102.617 29.8031C102.573 30.1445 102.45 30.4711 102.26 30.758C102.07 31.0449 101.816 31.2844 101.519 31.4584C101.222 31.6323 100.889 31.7361 100.546 31.7616L52.2587 35.3353C51.0198 35.4306 50.3051 36.0977 50.1145 37.3365L46.5122 60.6652C46.4791 60.9086 46.5106 61.1564 46.6035 61.3838C46.6964 61.6112 46.8474 61.8102 47.0414 61.9607C47.2355 62.1113 47.4657 62.2083 47.709 62.2418C47.9523 62.2754 48.2002 62.2444 48.4277 62.1519C58.1766 58.0636 64.0088 61.237 73.6147 62.838C74.6058 62.9905 75.3777 63.4956 75.9305 64.3532C77.2456 66.3735 76.9216 68.4796 74.9584 70.6714C73.5099 72.3106 73.872 73.2349 76.0448 73.4446C78.1414 73.6542 80.2474 73.4351 82.363 72.787C84.3261 72.1771 84.7931 72.7585 83.7639 74.531C81.6674 78.2095 78.7608 81.0017 75.0442 82.9076C73.9578 83.4603 73.2907 84.3275 73.043 85.5092C72.7571 86.8053 72.1758 87.8821 71.299 88.7398C70.5748 89.464 69.698 89.8738 68.6688 89.9691L44.7111 92.1991C43.6629 92.2944 42.9958 92.8471 42.7099 93.8572C41.5377 98.117 40.9088 102.377 39.3364 106.579C36.2297 114.851 33.7234 123.295 31.8174 131.909C29.7304 141.344 21.5825 144.46 18.5807 153.666C18.1423 155 17.3037 155.333 16.0648 154.666L7.9741 150.178C7.48959 149.915 7.09151 149.516 6.82777 149.029C6.56402 148.542 6.44585 147.988 6.48746 147.433L6.74476 144.803C6.9163 142.84 6.44934 142.678 5.34389 144.317Z" fill="white"/>
<path d="M678.358 8.46223C678.377 7.45208 678.596 6.48957 679.015 5.57472C679.358 4.81235 679.949 4.43115 680.788 4.43115L764.869 4.71704C766.126 4.7361 766.651 5.35553 766.441 6.57534L762.153 33.1918C761.981 34.202 761.39 34.707 760.38 34.707H704.46C704.029 34.7086 703.612 34.8642 703.283 35.1466C702.954 35.4289 702.732 35.82 702.659 36.2509L699.256 56.978C699.215 57.2194 699.227 57.4669 699.293 57.7034C699.359 57.9399 699.476 58.1596 699.636 58.3473C699.797 58.5351 699.997 58.6863 700.223 58.7905C700.448 58.8946 700.694 58.9493 700.943 58.9506L744.742 58.8077C744.929 58.8095 745.114 58.8515 745.284 58.9306C745.454 59.0097 745.604 59.1241 745.724 59.2658C745.843 59.4075 745.93 59.5729 745.978 59.7506C746.026 59.9283 746.033 60.1138 746 60.2943L741.54 86.4248C741.33 87.7018 740.577 88.3403 739.281 88.3403H695.797C694.253 88.3403 693.348 89.1026 693.081 90.6274L689.307 113.127C689.041 114.728 689.708 115.519 691.309 115.5L745.943 115.357C746.147 115.354 746.35 115.396 746.537 115.481C746.724 115.567 746.89 115.693 747.024 115.851C747.157 116.009 747.255 116.195 747.31 116.396C747.366 116.598 747.377 116.809 747.343 117.015L742.569 143.489C742.321 144.842 741.511 145.519 740.139 145.519H655.086C654.927 145.516 654.771 145.48 654.628 145.413C654.484 145.346 654.358 145.249 654.257 145.129C654.156 145.009 654.083 144.869 654.044 144.719C654.004 144.569 653.999 144.413 654.028 144.261C661.995 99.5282 669.857 54.748 677.614 9.92027C677.691 9.4819 677.881 9.11977 678.186 8.83388C678.301 8.71953 678.358 8.59564 678.358 8.46223ZM683.246 76.7331C683.279 76.574 683.365 76.4307 683.489 76.3268C683.614 76.2229 683.77 76.1645 683.933 76.1613L730.276 75.4466C730.392 75.4424 730.506 75.4097 730.607 75.3515C730.708 75.2933 730.793 75.2113 730.855 75.1127C730.917 75.014 730.954 74.9017 730.963 74.7855C730.971 74.6693 730.951 74.5527 730.905 74.4459L730.018 72.216C729.963 72.0881 729.871 71.9794 729.754 71.9032C729.637 71.827 729.5 71.7867 729.361 71.7872L684.504 70.9581C684.397 70.9603 684.291 70.9383 684.193 70.8938C684.096 70.8493 684.01 70.7834 683.941 70.701C683.872 70.6187 683.823 70.5219 683.797 70.418C683.771 70.314 683.768 70.2054 683.79 70.1004L692.767 22.4137C692.799 22.2547 692.885 22.1114 693.009 22.0075C693.134 21.9035 693.291 21.8452 693.453 21.8419L749.859 20.7841C750.044 20.7843 750.222 20.7129 750.355 20.585C750.488 20.4571 750.567 20.2826 750.574 20.098L750.631 18.64C750.635 18.5437 750.619 18.4477 750.585 18.3577C750.551 18.2676 750.499 18.1854 750.432 18.116C750.365 18.0466 750.285 17.9913 750.197 17.9536C750.108 17.916 750.013 17.8966 749.916 17.8966L689.565 17.1247C689.393 17.1225 689.227 17.1819 689.096 17.2921C688.965 17.4023 688.877 17.556 688.85 17.7251L669.238 131.224C669.221 131.327 669.227 131.432 669.256 131.533C669.284 131.633 669.334 131.726 669.402 131.805C669.47 131.884 669.555 131.947 669.65 131.99C669.745 132.033 669.848 132.054 669.953 132.053L730.476 131.567C730.66 131.567 730.838 131.496 730.971 131.368C731.105 131.24 731.183 131.065 731.191 130.881L731.276 129.509C731.28 129.412 731.264 129.316 731.23 129.226C731.196 129.136 731.144 129.054 731.077 128.985C731.011 128.915 730.93 128.86 730.842 128.822C730.753 128.785 730.658 128.765 730.562 128.765L674.155 128.537C674.05 128.535 673.947 128.509 673.853 128.463C673.759 128.417 673.677 128.35 673.611 128.268C673.546 128.187 673.499 128.091 673.474 127.99C673.45 127.888 673.448 127.782 673.469 127.679L683.246 76.7331Z" fill="white"/>
<path d="M401.702 36.9656C401.765 36.6139 401.749 36.2529 401.655 35.9076C401.562 35.5624 401.394 35.2412 401.163 34.9664C400.932 34.6916 400.643 34.4698 400.316 34.3164C399.99 34.1629 399.633 34.0816 399.272 34.0781L369.911 34.0209C368.871 34.0195 367.865 34.3861 367.069 35.0559C366.274 35.7257 365.741 36.6554 365.566 37.6803L352.701 110.726C352.072 114.385 353.606 116.205 357.303 116.186L382.919 116.043C384.291 116.038 385.618 115.551 386.668 114.668C387.718 113.785 388.425 112.562 388.666 111.212L391.639 94.3154C391.686 94.0452 391.826 93.7999 392.035 93.6223C392.244 93.4447 392.508 93.346 392.783 93.3433L419.37 93.3148C419.594 93.3123 419.815 93.3584 420.019 93.4499C420.223 93.5413 420.405 93.676 420.552 93.8445C420.698 94.0131 420.807 94.2115 420.87 94.4261C420.932 94.6406 420.947 94.8662 420.914 95.0873C417.112 119.217 415.196 143.117 384.978 145.376C379.508 145.795 366.404 145.804 345.668 145.404C322.167 144.947 319.766 127.164 323.482 108.153C327.885 85.6052 331.888 62.9436 335.49 40.1676C338.978 18.2397 348.698 3.88794 372.656 4.5169C382.605 4.78373 393.021 4.75514 403.904 4.43113C421.658 3.88794 433.408 10.4634 431.835 30.5902C431.111 39.8721 429.548 48.3822 427.147 56.1203C427.082 56.3279 426.951 56.5106 426.772 56.6436C426.593 56.7765 426.374 56.8534 426.146 56.8636C416.883 56.997 407.706 56.9494 398.615 56.7207C398.572 56.7208 398.529 56.7122 398.49 56.6955C398.451 56.6788 398.416 56.6545 398.389 56.6242C398.361 56.594 398.342 56.5587 398.331 56.521C398.321 56.4832 398.32 56.444 398.329 56.4062L401.702 36.9656ZM351.128 47.4292C352.005 42.4547 353.11 37.5278 354.445 32.6486C356.303 25.7872 361.678 21.7276 368.539 21.6418C379.784 21.4703 391.591 21.4131 403.961 21.4703C408.001 21.4893 410.851 22.4613 412.509 24.3864C417.14 29.7897 414.567 35.6505 413.767 41.8257C413.691 42.3784 413.824 42.874 414.167 43.3124C414.434 43.6364 414.777 43.7984 415.196 43.7984C416.226 43.7793 416.893 43.2838 417.198 42.3117C420.4 32.1626 420.914 18.3255 406.505 17.4106C394.46 16.6673 382.548 16.4767 370.769 16.8388C362.249 17.0961 352.986 21.8705 350.585 30.4187C349.022 36.0031 347.774 41.7876 346.84 47.7723C343.314 70.0146 339.511 92.419 335.433 114.985C333.86 123.648 338.863 132.139 348.184 131.967C359.295 131.758 370.769 131.719 382.605 131.853C398.329 132.053 403.847 122.247 406.019 108.067C406.059 107.759 406 107.448 405.851 107.18C405.701 106.912 405.469 106.701 405.19 106.58L404.304 106.208C403.046 105.675 402.284 106.075 402.017 107.409C401.617 109.506 401.226 111.717 400.845 114.042C399.187 124.181 393.183 129.175 382.834 129.023C371.436 128.851 360.019 128.689 348.584 128.537C347.082 128.521 345.601 128.176 344.247 127.526C342.892 126.875 341.696 125.936 340.743 124.772C339.789 123.609 339.101 122.25 338.727 120.792C338.353 119.333 338.302 117.81 338.578 116.329C342.999 92.6381 347.183 69.6715 351.128 47.4292Z" fill="white"/>
<path d="M527.267 117.758C524.408 133.939 511.172 144.803 495.39 145.261C483.84 145.623 470.718 145.68 456.023 145.432C435.382 145.108 426.957 134.425 430.75 113.384C434.886 90.4933 439.251 65.554 443.844 38.5659C447.446 17.4099 457.453 4.0016 480.238 4.5448C491.617 4.81163 503.281 4.78304 515.231 4.45903C536.416 3.88725 545.421 15.2657 541.733 36.1644C536.53 65.3825 531.708 92.5803 527.267 117.758ZM443.072 114.927C442.667 117.127 442.762 119.39 443.351 121.548C443.94 123.706 445.007 125.704 446.474 127.393C447.94 129.082 449.768 130.419 451.822 131.305C453.877 132.191 456.104 132.603 458.339 132.51L499.622 130.852C502.999 130.712 506.229 129.427 508.78 127.209C511.331 124.99 513.052 121.97 513.659 118.644L529.183 34.3347C529.584 32.1519 529.492 29.9071 528.915 27.7642C528.337 25.6214 527.288 23.6347 525.844 21.9495C524.4 20.2642 522.597 18.923 520.568 18.0238C518.539 17.1246 516.335 16.6902 514.116 16.7524L472.948 17.9245C469.544 18.0246 466.277 19.2879 463.692 21.5039C461.107 23.72 459.359 26.7551 458.739 30.1035L443.072 114.927Z" fill="white"/>
<path d="M552.569 113.213L566.091 36.1364C566.142 35.8691 566.133 35.5938 566.064 35.3305C565.996 35.0672 565.869 34.8226 565.694 34.6145C565.518 34.4063 565.299 34.2399 565.051 34.1273C564.803 34.0147 564.534 33.9588 564.262 33.9636L557.457 34.078C556.142 34.097 555.599 33.4585 555.828 32.1625L560.23 6.28934C560.421 5.1839 561.079 4.63117 562.203 4.63117C586.409 4.66929 610.871 4.65976 635.591 4.60258C654.403 4.57399 660.207 18.5827 657.319 34.9357C653.26 58.0357 648.828 83.6134 644.025 111.669C640.08 134.712 629.016 145.747 605.115 145.633C580.262 145.48 557.905 145.452 538.045 145.547C537.772 145.551 537.502 145.495 537.253 145.382C537.005 145.27 536.784 145.104 536.606 144.897C536.429 144.689 536.299 144.445 536.227 144.182C536.154 143.919 536.141 143.643 536.187 143.374L540.533 117.644C540.761 116.253 541.59 115.538 543.02 115.5L549.996 115.385C551.463 115.366 552.321 114.642 552.569 113.213ZM560.23 128.451L549.224 128.965C548.385 129.003 548.071 129.432 548.28 130.252L548.48 131.052C548.537 131.265 548.66 131.453 548.831 131.588C549.001 131.722 549.21 131.795 549.424 131.796C568.864 131.853 588.572 131.881 608.546 131.881C621.449 131.881 629.016 125.659 631.246 113.213C636.087 86.1483 640.823 59.1983 645.455 32.3626C645.763 30.5698 645.676 28.7312 645.199 26.9758C644.721 25.2204 643.865 23.5907 642.691 22.2013C641.517 20.8118 640.053 19.6962 638.401 18.9328C636.75 18.1694 634.952 17.7766 633.133 17.7822H569.322C568.655 17.7822 568.312 18.1157 568.293 18.7828L568.264 19.7548C568.245 20.4791 568.607 20.8507 569.35 20.8698L578.127 21.1271C580.148 21.1843 580.986 22.2135 580.643 24.2147L562.775 126.192C562.527 127.622 561.679 128.374 560.23 128.451Z" fill="white"/>
<path d="M182.028 145.376L176.567 151.408C176.19 151.821 175.727 152.145 175.209 152.357C174.692 152.569 174.134 152.663 173.576 152.633C173.018 152.603 172.474 152.449 171.983 152.183C171.491 151.917 171.065 151.545 170.735 151.094L168.734 148.378C167.895 147.215 166.79 146.844 165.417 147.263C163.721 147.758 162.168 147.587 160.757 146.748C159.823 146.177 159.252 145.29 159.042 144.09C157.136 133.874 155.868 123.486 155.239 112.927C155.16 111.714 154.626 110.576 153.745 109.743C152.864 108.91 151.702 108.444 150.494 108.439C141.269 108.42 132.521 109.306 124.249 111.098C122.877 111.403 121.8 112.127 121.018 113.27C112.156 126.097 101.997 138.553 90.5423 150.636C90.3188 150.87 90.0404 151.045 89.7324 151.144C89.4244 151.243 89.0966 151.264 88.7786 151.204C88.4606 151.144 88.1625 151.006 87.9114 150.802C87.6602 150.598 87.4639 150.335 87.3403 150.036C86.8448 148.816 85.9871 147.816 84.7673 147.034C83.8524 146.443 82.9281 146.405 81.9941 146.92L74.0178 151.323C72.0356 152.428 70.3774 152.066 69.0433 150.236C65.7269 145.719 64.1259 140.116 67.2993 135.141C88.1503 102.416 109.897 62.4866 132.54 15.3527C136.971 6.14695 149.036 4.51737 157.813 6.20413C163.397 7.27145 169.143 7.23333 175.052 6.08977C177.205 5.67046 178.511 6.53767 178.968 8.69138C180.341 15.0382 181.284 21.7852 180.941 28.2749C180.541 35.3841 180.636 42.4837 181.227 49.5738C183.648 78.3536 186.459 106.609 189.661 134.341C190.233 139.239 188.431 142.422 184.257 143.889C183.381 144.194 182.637 144.69 182.028 145.376ZM133.426 80.5645C133.365 80.7112 133.341 80.8706 133.357 81.0287C133.372 81.1868 133.425 81.3388 133.513 81.4714C133.6 81.604 133.719 81.7131 133.858 81.7892C133.998 81.8654 134.153 81.9062 134.312 81.9082L151.523 81.708C151.651 81.7043 151.776 81.6755 151.893 81.6232C152.009 81.5709 152.114 81.4962 152.202 81.4032C152.29 81.3103 152.358 81.201 152.403 81.0816C152.449 80.9622 152.47 80.8351 152.466 80.7074L150.637 46.5148C150.625 46.297 150.54 46.0896 150.396 45.9258C150.252 45.762 150.057 45.6515 149.843 45.6119C149.628 45.5723 149.407 45.606 149.213 45.7075C149.02 45.8091 148.867 45.9726 148.778 46.1717L133.426 80.5645Z" fill="white"/>
<path d="M631.218 93.0003C629.559 101.577 628.845 110.525 626.157 118.759C624.08 125.087 619.305 128.327 611.834 128.479C596.129 128.784 581.006 128.803 566.463 128.537C566.182 128.535 565.906 128.464 565.658 128.33C565.411 128.196 565.201 128.003 565.045 127.769C564.89 127.534 564.795 127.265 564.768 126.985C564.741 126.706 564.783 126.423 564.891 126.164C565.463 124.791 566.235 123.648 566.52 122.104C571.933 91.7233 577.565 59.8464 583.417 26.4733C584.046 22.9473 586.152 21.1653 589.735 21.1272C602.047 20.9747 615.027 20.9842 628.673 21.1558C640.852 21.2987 642.567 27.1309 640.909 37.6517C638.089 55.5104 634.858 73.9599 631.218 93.0003ZM580.872 112.069C580.796 112.508 580.818 112.958 580.936 113.387C581.054 113.817 581.266 114.215 581.555 114.553C581.844 114.892 582.205 115.162 582.61 115.346C583.016 115.529 583.457 115.621 583.903 115.614L612.635 115.185C613.338 115.177 614.016 114.924 614.553 114.47C615.091 114.017 615.453 113.39 615.579 112.698L628.702 37.766C628.777 37.332 628.756 36.8869 628.641 36.4617C628.526 36.0365 628.32 35.6414 628.037 35.304C627.754 34.9666 627.401 34.6949 627.002 34.5078C626.604 34.3208 626.169 34.2229 625.729 34.221L597.197 33.8779C596.474 33.8674 595.772 34.1151 595.217 34.5764C594.661 35.0376 594.289 35.6821 594.166 36.3938L580.872 112.069Z" fill="white"/>
<path d="M446.676 115.727L462.343 31.2178C462.802 28.7114 464.109 26.4395 466.046 24.7839C467.983 23.1282 470.431 22.1898 472.978 22.1264L514.461 21.1258C516.109 21.0859 517.746 21.4141 519.252 22.0865C520.758 22.7589 522.095 23.7587 523.166 25.0129C524.236 26.2671 525.014 27.7443 525.442 29.337C525.87 30.9296 525.937 32.5976 525.639 34.2196L510.201 119.101C509.744 121.631 508.422 123.924 506.461 125.588C504.5 127.251 502.023 128.182 499.451 128.221L457.768 128.85C456.124 128.877 454.494 128.539 452.996 127.86C451.499 127.18 450.171 126.176 449.109 124.92C448.048 123.664 447.279 122.187 446.858 120.597C446.437 119.008 446.375 117.344 446.676 115.727ZM460.57 111.525C460.469 112.105 460.497 112.7 460.653 113.268C460.808 113.836 461.087 114.362 461.469 114.81C461.851 115.258 462.328 115.616 462.864 115.858C463.401 116.101 463.984 116.222 464.573 116.213L494.791 115.87C495.72 115.859 496.616 115.524 497.326 114.924C498.035 114.324 498.514 113.497 498.68 112.582L511.859 38.6224C511.964 38.0427 511.94 37.4469 511.789 36.8775C511.637 36.3082 511.362 35.7794 510.982 35.3288C510.602 34.8782 510.128 34.5169 509.593 34.2708C509.057 34.0248 508.474 33.8999 507.885 33.9052L477.552 34.1053C476.614 34.1115 475.708 34.4469 474.992 35.0531C474.276 35.6592 473.796 36.4975 473.635 37.4216L460.57 111.525Z" fill="white"/>
</svg>
