<?xml version="1.0" encoding="UTF-8" standalone="no"?>
<!DOCTYPE svg PUBLIC "-//W3C//DTD SVG 1.1//EN" "http://www.w3.org/Graphics/SVG/1.1/DTD/svg11.dtd">
<svg width="100%" height="100%" viewBox="0 0 352 97" version="1.1" xmlns="http://www.w3.org/2000/svg" xmlns:xlink="http://www.w3.org/1999/xlink" xml:space="preserve" xmlns:serif="http://www.serif.com/" style="fill-rule:evenodd;clip-rule:evenodd;stroke-linejoin:round;stroke-miterlimit:2;">
    <g transform="matrix(1,0,0,1,-6.48,-6.71)">
        <path d="M6.48,7.01L6.48,9.61L15.21,9.56L15.26,9.56L15.26,37.41L20.83,37.41L20.83,9.56L31.83,9.56L31.83,7.01L6.48,7.01Z" style="fill:white;fill-rule:nonzero;"/>
        <path d="M35.47,6.71L35.47,37.41L41.04,37.41L41.04,20.1C43.49,18.85 45.13,18.01 47.68,18.01C50.43,18.01 50.93,19.9 50.93,22.4L50.93,37.41L55.71,37.41L55.71,23.05C55.71,18.6 53.16,16.31 49.11,16.31C46.22,16.31 43.83,17.76 41.04,19.4L41.04,6.71L35.47,6.71Z" style="fill:white;fill-rule:nonzero;"/>
        <path d="M71.82,15.91C63.99,15.91 60.35,20.55 60.35,27.24C60.35,34.37 64.93,37.76 71.16,37.76C76.09,37.76 79.23,35.77 81.83,34.12L81.53,33.72C79.23,34.77 77.54,35.32 75.09,35.32C70.11,35.32 65.88,32.47 65.53,24.99L82.62,24.99L82.62,24.54C82.62,20.1 80.33,15.91 71.82,15.91ZM71.72,16.66C75.95,16.66 77.64,18.95 77.69,23.94L65.63,23.94C65.93,19.9 67.12,16.66 71.72,16.66Z" style="fill:white;fill-rule:nonzero;"/>
        <path d="M36.31,43.11L31.13,49.19C37.75,51.98 39.85,56.12 39.85,60.59C39.85,67.28 36.56,74.61 30.33,74.61C25.3,74.61 23.41,71.34 23.41,66.4L23.41,44.2L15.68,44.2L15.68,66.95C15.68,75.12 21.36,80.86 29.84,80.86C40.99,80.86 47.72,70.49 47.72,60.81C47.72,52.98 43.19,46.75 36.31,43.11Z" style="fill:white;fill-rule:nonzero;"/>
        <path d="M51.82,53.17L51.82,80.42L59.55,80.42L59.55,58.86L60.24,58.86C65.72,58.86 67.72,61.61 67.72,67.6C67.72,72.88 66.17,75.13 61.94,76.32L64.34,81.06C72.81,79.82 75.46,72.93 75.46,67.6C75.46,59.12 69.23,53.18 61.19,53.18L51.82,53.17Z" style="fill:white;fill-rule:nonzero;"/>
        <path d="M79.29,52.88L79.29,80.42L87.02,80.42L87.02,52.87C85.77,53.27 84.57,53.47 83.22,53.47C81.88,53.47 80.49,53.27 79.29,52.88Z" style="fill:white;fill-rule:nonzero;"/>
        <path d="M83.52,43.4C79.88,43.4 78.74,46.15 78.74,48.05C78.74,50.69 80.39,53.03 83.33,53.03C86.27,53.03 87.71,50.73 87.71,48.24C87.71,46.05 86.17,43.4 83.52,43.4Z" style="fill:white;fill-rule:nonzero;"/>
        <path d="M92.39,43.21L92.39,80.42L100.12,80.42L100.12,59.11L106.8,59.11L106.8,53.18L100.12,53.18L100.12,43.21L92.39,43.21Z" style="fill:white;fill-rule:nonzero;"/>
        <path d="M121.4,52.88L121.4,74.43L120.3,74.43C115.17,74.43 113.58,70.89 113.58,66.5C113.58,61.86 115.42,58.97 120,57.22L117.91,52.03C109.93,53.43 105.84,60.07 105.84,66.6C105.84,74.78 111.07,80.32 119.7,80.32L121.9,80.32L121.9,89.34L129.63,89.34L129.63,52.88L121.4,52.88Z" style="fill:white;fill-rule:nonzero;"/>
        <g transform="matrix(1.1606,0,0,1.1606,122.212,-5.53515)">
            <g transform="matrix(51.1791,0,0,51.1791,202.33,80.86)">
            </g>
            <text x="15.68px" y="80.86px" style="font-family:'BodoniSvtyTwoOSITCTT-Book', 'Bodoni 72 Oldstyle';font-size:51.179px;fill:white;">Directory</text>
        </g>
    </g>
</svg>
